<svg width="40" height="40" viewBox="0 0 40 40" fill="none" xmlns="http://www.w3.org/2000/svg">
  <defs>
    <linearGradient id="phoenix-gradient" x1="0%" y1="0%" x2="100%" y2="100%">
      <stop offset="0%" style="stop-color:#f97316;stop-opacity:1" />
      <stop offset="100%" style="stop-color:#fb923c;stop-opacity:1" />
    </linearGradient>
  </defs>
  
  <!-- Background circle -->
  <circle cx="20" cy="20" r="18" fill="url(#phoenix-gradient)" stroke="#0f172a" stroke-width="2"/>
  
  <!-- Phoenix bird silhouette -->
  <path d="M20 8 L24 16 L28 12 L26 20 L32 18 L28 24 L30 28 L24 26 L20 32 L16 26 L10 28 L12 24 L8 18 L14 20 L12 12 L16 16 L20 8 Z" 
        fill="#0f172a" 
        stroke="#f97316" 
        stroke-width="1.5" 
        stroke-linejoin="round"/>
  
  <!-- Defense shield overlay -->
  <path d="M20 6 L26 10 L24 16 L20 20 L16 16 L14 10 L20 6 Z" 
        fill="none" 
        stroke="#f97316" 
        stroke-width="2" 
        stroke-linejoin="round"/>
  
  <!-- Central dot -->
  <circle cx="20" cy="20" r="3" fill="#0f172a"/>
</svg>
